<?xml version="1.0" standalone="no"?>
<!DOCTYPE svg PUBLIC "-//W3C//DTD SVG 20010904//EN"
 "http://www.w3.org/TR/2001/REC-SVG-20010904/DTD/svg10.dtd">
<svg version="1.0" xmlns="http://www.w3.org/2000/svg"
 width="720.000000pt" height="720.000000pt" viewBox="0 0 720.000000 720.000000"
 preserveAspectRatio="xMidYMid meet">

<g transform="translate(0.000000,720.000000) scale(0.100000,-0.100000)"
fill="#000000" stroke="none">
<path d="M3489 6000 c-31 -16 -90 -78 -148 -153 -12 -15 -12 -17 3 -11 9 3 16
10 16 14 0 15 143 100 196 117 42 13 60 14 95 5 41 -10 42 -10 24 5 -59 45
-128 54 -186 23z"/>
<path d="M4214 5880 c13 -30 32 -88 42 -128 19 -81 29 -92 15 -16 -12 61 -46
153 -66 180 -8 10 -4 -6 9 -36z"/>
<path d="M4236 5645 c7 -103 37 -285 46 -285 4 0 5 19 3 43 -3 23 -9 83 -15
132 -5 50 -16 110 -25 135 l-14 45 5 -70z"/>
<path d="M4281 5644 c0 -11 3 -14 6 -6 3 7 2 16 -1 19 -3 4 -6 -2 -5 -13z"/>
<path d="M4000 5621 c0 -6 4 -12 9 -15 5 -4 12 -24 16 -46 4 -22 11 -42 16
-46 15 -9 10 -20 -16 -32 -15 -7 -25 -8 -25 -2 0 6 -33 10 -77 10 -73 0 -80
-2 -115 -33 -112 -98 -111 -97 -176 -91 -36 4 -73 2 -92 -5 -29 -10 -38 -7
-95 24 -48 27 -73 35 -113 35 -43 0 -49 3 -46 18 4 15 -3 17 -60 16 -42 -1
-75 -7 -91 -18 -25 -16 -25 -16 -15 10 6 15 8 29 5 32 -3 3 -5 1 -5 -5 0 -5
-11 -23 -25 -39 -41 -47 -35 -55 20 -23 22 14 44 19 59 15 15 -4 26 -1 29 7 4
8 8 9 14 1 4 -5 46 -18 93 -28 128 -27 146 -40 177 -126 13 -37 8 -78 -12 -95
-9 -8 -9 -16 1 -35 l13 -24 9 24 c5 14 10 56 11 95 2 89 15 105 86 105 59 0
71 -9 83 -65 l7 -38 13 50 c16 63 40 86 123 119 197 79 351 3 336 -166 -3 -30
-2 -45 1 -33 15 50 31 5 38 -107 7 -109 21 -124 23 -25 0 22 8 93 17 159 l17
118 -35 32 c-19 17 -68 69 -109 116 -94 107 -109 122 -109 111z"/>
<path d="M4404 5360 c0 -58 1 -81 3 -52 2 28 2 76 0 105 -2 28 -3 5 -3 -53z"/>
<path d="M3789 5338 c-7 -13 -24 -33 -38 -46 l-26 -23 28 4 c16 2 33 10 38 18
8 12 10 12 18 0 7 -11 22 -12 68 -6 68 8 86 8 133 0 30 -5 32 -5 15 6 -11 7
-22 15 -25 19 -13 17 -78 33 -131 33 -32 0 -56 4 -53 9 3 4 1 8 -5 8 -6 0 -16
-10 -22 -22z"/>
<path d="M3295 5311 c-22 -5 -51 -13 -65 -20 -24 -11 -23 -11 10 -7 19 2 53
-2 76 -10 22 -7 53 -13 70 -12 16 0 39 -2 52 -5 27 -7 28 7 4 33 -21 23 -88
32 -147 21z"/>
<path d="M2918 5305 c-15 -24 -58 -150 -57 -164 1 -9 1 -24 0 -33 -1 -17 -84
-124 -160 -208 -23 -24 -41 -49 -41 -54 0 -5 13 5 28 22 16 18 32 29 35 25 4
-3 7 1 7 9 0 9 7 18 15 22 8 3 15 13 15 22 0 13 3 14 13 5 8 -6 17 -8 20 -4 7
6 12 -23 7 -42 -2 -5 -2 -25 -1 -44 2 -42 -12 -108 -50 -225 -31 -97 -33 -127
-4 -49 38 103 176 374 208 410 l34 38 -24 110 c-37 168 -38 171 -45 160z"/>
<path d="M3050 5288 c0 -13 -4 -30 -10 -38 -7 -11 -11 -9 -19 13 -20 52 -29
27 -10 -28 10 -30 19 -67 19 -82 0 -21 3 -24 12 -15 11 11 23 172 13 172 -3 0
-5 -10 -5 -22z"/>
<path d="M4276 5284 c-10 -50 -46 -258 -46 -271 0 -7 4 -13 9 -13 16 0 65 275
53 296 -8 15 -11 13 -16 -12z"/>
<path d="M3690 5221 c0 -30 11 -51 26 -51 17 0 17 0 -2 38 -18 37 -24 40 -24
13z"/>
<path d="M4386 5208 c-3 -13 -5 -32 -5 -43 1 -11 5 -2 10 19 10 42 6 62 -5 24z"/>
<path d="M3370 5013 c-35 -20 -39 -24 -18 -21 19 4 28 0 30 -11 3 -11 9 -5 21
18 9 19 16 35 15 36 -2 1 -23 -9 -48 -22z"/>
<path d="M3780 5008 c0 -19 12 -33 39 -48 l24 -12 -22 31 c-26 36 -41 47 -41
29z"/>
<path d="M4377 4959 c-9 -36 -19 -75 -22 -85 -4 -11 0 -9 9 6 18 30 40 114 34
132 -3 7 -12 -17 -21 -53z"/>
<path d="M3258 4983 c12 -2 32 -2 45 0 12 2 2 4 -23 4 -25 0 -35 -2 -22 -4z"/>
<path d="M4225 4970 c-3 -5 -1 -10 4 -10 6 0 11 5 11 10 0 6 -2 10 -4 10 -3 0
-8 -4 -11 -10z"/>
<path d="M3460 4930 c-11 -7 -4 -10 25 -9 31 0 36 2 20 9 -26 11 -28 11 -45 0z"/>
<path d="M3670 4930 c-11 -7 -5 -8 20 -4 43 8 51 14 19 14 -13 0 -31 -5 -39
-10z"/>
<path d="M2766 4914 c-4 -10 -1 -14 6 -12 15 5 23 28 10 28 -5 0 -13 -7 -16
-16z"/>
<path d="M3618 4898 c9 -9 15 -9 24 0 9 9 7 12 -12 12 -19 0 -21 -3 -12 -12z"/>
<path d="M2690 4839 c0 -5 5 -7 10 -4 6 3 10 8 10 11 0 2 -4 4 -10 4 -5 0 -10
-5 -10 -11z"/>
<path d="M2615 4800 c-3 -5 -1 -10 4 -10 6 0 11 5 11 10 0 6 -2 10 -4 10 -3 0
-8 -4 -11 -10z"/>
<path d="M3660 4789 c-36 -5 -120 -6 -187 -2 -76 3 -123 2 -123 -4 0 -16 257
-35 319 -23 29 5 74 10 100 10 25 1 60 7 76 15 29 13 26 13 -45 13 -41 0 -104
-4 -140 -9z"/>
<path d="M2995 4688 c-10 -29 -30 -78 -44 -108 -13 -30 -24 -59 -22 -64 1 -4
-2 -13 -7 -20 -11 -13 -33 -79 -29 -87 1 -3 -3 -12 -10 -20 -6 -8 -25 -48 -41
-89 -17 -42 -39 -94 -50 -115 -22 -44 -77 -161 -112 -240 -12 -27 -39 -86 -60
-130 -211 -447 -341 -737 -361 -802 -6 -24 -14 -43 -16 -43 -2 0 -16 14 -30
31 -14 17 -50 44 -80 61 -29 16 -53 33 -53 37 0 8 43 102 132 291 158 333 198
431 155 378 -6 -8 -39 -35 -71 -58 -118 -85 -166 -151 -166 -224 0 -12 -16
-54 -35 -95 -19 -40 -35 -82 -35 -94 0 -12 -12 -49 -26 -82 -44 -102 -94 -246
-106 -299 -21 -103 -49 -167 -103 -237 -34 -44 -56 -84 -60 -107 -3 -20 -17
-71 -31 -113 -30 -91 -39 -165 -26 -199 7 -17 6 -33 -3 -50 -7 -14 -16 -45
-20 -70 -4 -25 -16 -64 -27 -88 -11 -23 -22 -60 -25 -82 -6 -45 -24 -65 -53
-57 -10 3 -18 2 -17 -2 1 -3 -6 -18 -16 -32 -15 -23 -16 -37 -9 -98 5 -40 5
-74 1 -77 -18 -11 -30 -143 -20 -219 13 -91 13 -94 3 -77 -5 6 -9 33 -11 60
-1 26 -6 49 -12 50 -5 2 -9 21 -9 43 0 21 -4 39 -9 39 -11 0 -21 49 -14 67 3
7 16 13 28 13 15 0 26 8 30 20 9 27 -3 60 -21 60 -10 0 -14 13 -14 48 0 35 -5
54 -18 65 -25 23 -32 21 -32 -8 l0 -25 -120 0 -120 0 0 40 0 40 -40 0 -40 0 0
40 0 40 -40 0 c-22 0 -40 -4 -40 -9 0 -5 -11 -11 -24 -13 -17 -4 -23 -1 -19 9
3 7 13 12 22 11 12 -2 17 7 19 40 3 38 1 42 -20 42 -13 0 -29 9 -36 20 -7 11
-20 20 -30 20 -14 0 -15 -2 -2 -10 12 -8 12 -10 -5 -10 -15 0 -17 -2 -6 -9 11
-7 11 -10 -3 -18 -15 -8 -15 -11 -1 -28 16 -19 16 -19 9 4 -4 17 -3 21 6 16 6
-4 9 -17 6 -28 -8 -30 23 -74 55 -81 21 -4 27 -10 23 -21 -4 -11 4 -20 30 -30
20 -8 36 -21 36 -27 0 -9 -3 -9 -12 0 -7 7 -19 12 -28 12 -9 0 -24 14 -34 31
-10 17 -20 28 -23 25 -10 -9 31 -66 48 -66 19 0 42 -24 32 -33 -3 -4 -1 -7 4
-7 6 0 13 5 15 12 3 9 6 9 12 0 4 -7 3 -12 -3 -12 -6 0 -8 -8 -4 -17 3 -10 -7
-3 -24 15 -55 60 -44 32 28 -65 108 -147 158 -203 174 -196 8 3 15 0 15 -6 0
-6 -5 -11 -12 -11 -7 0 14 -26 45 -57 32 -32 71 -75 87 -96 16 -21 31 -37 33
-35 6 4 103 -85 108 -98 6 -17 147 -131 249 -204 232 -164 516 -310 785 -403
679 -233 1416 -221 2093 34 198 74 465 213 599 312 29 21 56 39 60 40 4 0 19
11 33 24 14 13 28 23 32 23 4 0 30 19 57 43 27 23 74 62 105 87 58 47 299 286
335 331 11 15 17 30 13 34 -4 5 -2 5 4 2 16 -9 102 97 210 258 94 139 102 153
185 315 32 61 35 75 17 64 -8 -4 -10 -3 -5 2 5 5 13 9 18 9 8 0 49 72 49 87 0
8 44 108 62 142 8 15 7 18 -6 13 -9 -4 -16 -2 -16 3 0 6 6 10 14 10 8 0 18 5
22 12 5 8 2 9 -9 5 -10 -3 -17 -2 -17 3 0 6 9 10 19 10 17 0 19 6 15 40 -3 23
-1 40 5 40 6 0 8 -8 6 -17 -3 -10 2 -2 12 17 9 19 16 39 14 44 -1 4 4 14 10
22 9 11 8 14 -1 14 -13 0 -39 -28 -40 -42 0 -4 8 -4 18 -1 15 6 15 5 3 -10 -7
-9 -17 -14 -22 -11 -12 7 -11 41 1 49 6 3 10 11 10 16 0 6 -4 8 -9 4 -6 -3 -9
4 -8 15 1 19 3 19 13 6 14 -19 24 -21 24 -3 0 7 -9 18 -21 25 -15 10 -20 21
-16 38 3 18 0 24 -14 24 -15 0 -19 8 -19 40 0 36 -2 40 -25 40 -22 0 -25 4
-25 40 l0 40 -80 0 -80 0 0 40 0 40 -44 0 c-39 0 -50 -5 -84 -40 -31 -32 -46
-40 -75 -40 -33 0 -37 -3 -37 -26 0 -24 -3 -25 -43 -23 -43 3 -67 -5 -67 -21
0 -5 8 -11 18 -13 9 -3 -2 -5 -25 -6 -42 -1 -43 -2 -43 -35 l0 -34 -77 -7
c-55 -5 -78 -4 -81 4 -2 7 -18 -4 -36 -23 -30 -34 -33 -35 -116 -38 -47 -2
-88 -7 -92 -13 -4 -5 -8 -21 -9 -35 -2 -60 -18 20 -28 140 -6 69 -19 179 -30
245 -11 66 -27 197 -35 290 -9 94 -25 204 -36 245 -11 41 -20 97 -20 125 0 48
-2 52 -61 107 -34 32 -70 60 -80 63 -11 4 -19 10 -19 15 0 5 -46 23 -102 40
-132 41 -341 121 -350 134 -12 18 -25 -3 -84 -144 -84 -202 -115 -239 -297
-369 -116 -82 -223 -141 -255 -141 -10 0 -22 -4 -27 -8 -6 -5 -37 -17 -70 -27
-33 -9 -125 -40 -205 -67 -226 -78 -258 -88 -365 -115 -98 -25 -168 -53 -180
-73 -17 -28 79 -1 332 94 236 88 383 134 478 148 11 2 26 7 34 12 40 26 -57
-139 -175 -295 -40 -53 -130 -152 -199 -220 -113 -110 -185 -194 -185 -215 0
-3 7 0 16 7 15 13 16 11 12 -16 -6 -32 -57 -236 -88 -352 -16 -59 -20 -105
-20 -247 l0 -175 -32 5 c-18 3 -130 1 -249 -4 -200 -9 -221 -11 -273 -35 -53
-25 -57 -29 -95 -109 -21 -46 -46 -110 -55 -143 -37 -135 -38 -137 -63 -131
-13 3 -35 9 -50 12 -52 12 -152 96 -178 147 -17 35 -20 83 -5 92 6 4 8 11 4
16 -12 20 7 59 35 74 23 11 31 12 35 2 4 -6 4 -2 2 11 -2 12 0 22 4 22 5 0 16
3 26 7 12 4 15 3 10 -5 -5 -9 -1 -9 18 -2 21 7 24 6 19 -6 -3 -8 -18 -18 -34
-21 -16 -3 -29 -10 -29 -15 0 -6 8 -7 18 -3 9 4 26 10 37 13 11 3 26 12 33 19
8 7 18 11 23 8 5 -4 14 -3 19 0 7 4 -3 22 -23 45 -53 58 -61 94 -61 275 1 228
43 512 109 730 79 261 116 347 316 749 62 125 85 187 60 161 -10 -11 -73 -136
-139 -275 -22 -47 -63 -134 -91 -193 -70 -148 -175 -415 -202 -512 -12 -44
-25 -82 -28 -85 -4 -3 -13 -39 -20 -80 -7 -41 -16 -91 -21 -110 -16 -61 -33
-312 -27 -400 6 -100 30 -194 58 -232 27 -39 8 -35 -34 6 -43 41 -69 111 -92
241 -9 55 -21 109 -25 120 -5 11 -56 78 -114 148 -59 71 -113 141 -120 156
-14 26 -11 40 48 217 76 227 84 247 224 534 60 124 147 306 192 405 45 99 115
250 155 335 40 85 98 208 129 273 30 65 69 138 85 163 45 66 66 145 50 189 -7
19 -16 35 -19 35 -3 0 -14 -24 -25 -52z m1271 -1799 c25 -15 34 -28 34 -48 0
-15 3 -31 7 -35 12 -12 14 -57 3 -71 -6 -7 -10 -17 -8 -21 4 -16 -13 -83 -31
-124 -19 -43 -86 -94 -139 -106 -15 -4 -32 -13 -38 -20 -10 -12 -13 -12 -24 1
-8 9 -18 12 -29 6 -9 -4 -31 -4 -48 1 l-33 8 30 49 c34 54 77 101 94 101 6 0
4 4 -4 10 -12 7 -11 15 9 52 13 24 29 48 35 53 7 6 15 18 19 28 4 10 12 15 18
12 6 -4 9 -1 8 6 -3 15 47 119 57 119 4 0 22 -9 40 -21z m2050 -107 c-11 -10
-12 3 -7 53 l6 50 3 -49 c2 -26 1 -51 -2 -54z m141 -238 c-3 -3 -12 -4 -19 -1
-8 3 -5 6 6 6 11 1 17 -2 13 -5z m-30 -46 c-3 -8 -6 -5 -6 6 -1 11 2 17 5 13
3 -3 4 -12 1 -19z m13 -42 c0 -6 -5 -18 -11 -26 -9 -12 -10 -12 -5 4 4 12 0
23 -11 32 -17 12 -16 13 5 7 12 -3 22 -10 22 -17z m-22 -61 c-3 -3 -9 2 -12
12 -6 14 -5 15 5 6 7 -7 10 -15 7 -18z m-51 -97 c-3 -8 -6 -5 -6 6 -1 11 2 17
5 13 3 -3 4 -12 1 -19z m-1836 -60 c1 -13 1 -31 0 -40 -3 -27 18 -22 65 17 49
40 51 41 76 18 25 -22 23 -52 -8 -97 l-26 -38 21 -14 c33 -24 28 -69 -11 -96
-18 -13 -58 -48 -88 -77 l-55 -55 -108 0 -107 -1 6 30 c9 40 31 82 49 92 8 5
24 35 37 68 36 94 109 215 130 215 12 0 18 -8 19 -22z m-3416 -328 c3 -5 2
-10 -4 -10 -5 0 -13 5 -16 10 -3 6 -2 10 4 10 5 0 13 -4 16 -10z m52 -162 c10
-14 24 -48 20 -48 -2 0 -13 14 -25 30 -21 28 -16 45 5 18z m82 -117 c1 -15
-15 -1 -49 44 -11 15 -7 14 17 -5 18 -14 32 -31 32 -39z m6 39 c3 -6 -1 -7 -9
-4 -18 7 -21 14 -7 14 6 0 13 -4 16 -10z m25 -82 c0 -6 -6 -5 -15 2 -8 7 -15
14 -15 16 0 2 7 1 15 -2 8 -4 15 -11 15 -16z m177 -50 c-2 -13 -4 -3 -4 22 0
25 2 35 4 23 2 -13 2 -33 0 -45z m-115 3 c9 -11 14 -22 11 -25 -4 -3 -1 -6 5
-6 7 0 12 -5 12 -10 0 -17 -38 12 -49 37 -13 28 -1 30 21 4z m68 -67 c0 -14
-3 -14 -15 -4 -8 7 -15 14 -15 16 0 2 7 4 15 4 8 0 15 -7 15 -16z m23 -43 c-2
-6 9 -11 25 -12 l27 -1 -25 -8 c-14 -4 -19 -8 -11 -9 8 -1 11 -4 7 -8 -4 -4
-16 3 -26 17 -23 29 -25 44 -7 37 6 -2 11 -10 10 -16z m74 -43 c-3 -8 -6 -5
-6 6 -1 11 2 17 5 13 3 -3 4 -12 1 -19z m-17 -12 c0 -21 28 -27 39 -8 8 14 10
11 11 -16 0 -30 -1 -32 -16 -18 -8 9 -19 16 -24 16 -5 0 -14 9 -20 20 -7 14
-7 20 0 20 5 0 10 -6 10 -14z m1580 -696 c0 -5 -7 -10 -16 -10 -8 0 -12 5 -9
10 3 6 10 10 16 10 5 0 9 -4 9 -10z m190 -15 c0 -16 -6 -25 -15 -25 -18 0 -19
4 -3 30 16 26 18 25 18 -5z m150 -1 c0 -11 -5 -14 -16 -10 -9 3 -18 6 -20 6
-3 0 -2 5 1 10 10 16 35 12 35 -6z"/>
<path d="M4201 4661 c-91 -95 -268 -248 -315 -272 -77 -41 -185 -69 -264 -71
-71 -1 -74 -2 -37 -10 22 -5 73 -7 113 -5 73 6 121 24 242 92 65 37 363 335
335 335 -4 0 -37 -31 -74 -69z"/>
<path d="M3098 4493 c-6 -60 -5 -63 40 -94 47 -33 153 -218 111 -194 -11 6
-12 5 -1 -6 16 -18 15 -32 -3 -26 -8 4 -17 2 -20 -3 -4 -6 5 -10 19 -10 18 0
26 5 26 18 1 16 1 16 11 0 5 -10 19 -18 30 -18 18 0 18 2 -5 38 -26 39 -75
135 -106 206 -18 44 -80 134 -91 135 -4 1 -9 -20 -11 -46z"/>
<path d="M3255 4450 c16 -31 43 -50 69 -50 9 0 -2 16 -28 40 -52 48 -62 50
-41 10z"/>
<path d="M2986 4344 c-9 -38 -41 -145 -71 -239 -29 -93 -66 -210 -80 -260 -24
-80 -84 -270 -119 -380 -14 -43 -20 -64 -91 -332 -43 -162 -80 -341 -73 -349
2 -2 15 41 28 94 40 165 143 465 211 619 45 102 129 271 163 327 33 54 49 104
27 80 -14 -14 -129 -240 -157 -309 -14 -33 -34 -77 -45 -98 -11 -21 -32 -63
-45 -95 -30 -68 -27 -56 24 108 50 160 84 243 167 409 56 114 69 151 86 240
10 58 21 111 23 117 2 6 -4 39 -13 74 l-18 64 -17 -70z"/>
<path d="M4127 4376 c-4 -9 -13 -16 -22 -16 -8 0 -15 -4 -15 -9 0 -5 -9 -7
-20 -4 -13 4 -43 -10 -88 -41 -38 -25 -74 -46 -80 -46 -6 0 -26 -9 -44 -21
l-33 -21 30 5 c17 3 68 11 115 18 47 7 97 21 111 31 31 21 69 92 59 108 -5 8
-9 7 -13 -4z"/>
<path d="M4433 4264 l-46 -46 26 -16 c15 -9 27 -20 27 -24 0 -13 37 -9 106 9
37 10 64 23 64 30 0 16 -5 16 -32 2 -19 -10 -20 -9 -14 15 5 22 2 28 -17 35
-14 5 -27 17 -30 25 -11 27 -35 18 -84 -30z"/>
<path d="M2610 4278 c0 -3 -7 -22 -15 -42 -8 -20 -13 -36 -10 -36 8 0 36 73
30 78 -3 3 -5 3 -5 0z"/>
<path d="M3198 4244 c-4 -5 0 -18 8 -29 15 -20 17 -12 5 19 -4 11 -10 15 -13
10z"/>
<path d="M3490 3800 c0 -5 6 -10 14 -10 8 0 18 5 21 10 3 6 -3 10 -14 10 -12
0 -21 -4 -21 -10z"/>
<path d="M3434 3774 c10 -26 50 -84 58 -84 4 0 10 10 13 22 7 21 -10 41 -59
69 -16 10 -18 9 -12 -7z"/>
<path d="M6651 3394 c0 -11 3 -14 6 -6 3 7 2 16 -1 19 -3 4 -6 -2 -5 -13z"/>
<path d="M2866 3203 c-6 -14 -5 -15 5 -6 7 7 10 15 7 18 -3 3 -9 -2 -12 -12z"/>
<path d="M6595 3112 c-3 -3 -4 -17 -4 -31 1 -25 2 -25 10 4 7 25 8 23 4 -15
-3 -37 -2 -41 7 -25 23 39 9 93 -17 67z"/>
<path d="M6560 3053 c0 -6 5 -15 10 -18 12 -7 13 -65 2 -65 -5 0 -9 -37 -9
-82 0 -81 7 -78 20 7 5 28 4 34 -3 20 -11 -24 -13 -2 -3 34 6 23 7 24 15 5 7
-15 7 -14 3 6 -2 14 -5 34 -5 46 0 21 -29 68 -30 47z"/>
<path d="M3253 3032 c-27 -4 -28 -13 -8 -52 18 -35 35 -39 42 -10 4 15 14 20
38 20 24 0 37 7 49 25 l17 26 -58 -3 c-32 -2 -68 -4 -80 -6z"/>
<path d="M6601 3004 c0 -11 3 -14 6 -6 3 7 2 16 -1 19 -3 4 -6 -2 -5 -13z"/>
<path d="M3398 2887 c-19 -19 -44 -54 -56 -78 -12 -24 -36 -69 -53 -99 l-32
-55 53 50 c71 67 110 122 110 155 0 14 5 31 12 38 6 6 9 14 6 17 -3 4 -21 -9
-40 -28z"/>
<path d="M6495 2779 c-10 -30 0 -33 13 -4 6 14 7 25 2 25 -5 0 -12 -9 -15 -21z"/>
<path d="M6548 2793 c7 -3 16 -2 19 1 4 3 -2 6 -13 5 -11 0 -14 -3 -6 -6z"/>
<path d="M6528 2773 c6 -2 18 -2 25 0 6 3 1 5 -13 5 -14 0 -19 -2 -12 -5z"/>
<path d="M6510 2749 c0 -5 9 -9 19 -9 11 0 22 4 25 9 3 5 -6 9 -19 9 -14 0
-25 -4 -25 -9z"/>
<path d="M6530 2714 c0 -8 5 -12 10 -9 6 4 8 11 5 16 -9 14 -15 11 -15 -7z"/>
<path d="M751 2425 c0 -5 6 -21 13 -34 12 -21 14 -22 20 -5 4 10 4 15 0 11 -5
-4 -14 3 -21 15 -7 13 -12 19 -12 13z"/>
<path d="M785 2359 c-4 -6 -5 -12 -2 -15 2 -3 7 2 10 11 7 17 1 20 -8 4z"/>
<path d="M816 2277 c3 -10 9 -15 12 -12 3 3 0 11 -7 18 -10 9 -11 8 -5 -6z"/>
<path d="M858 2253 c7 -3 16 -2 19 1 4 3 -2 6 -13 5 -11 0 -14 -3 -6 -6z"/>
<path d="M850 2215 c0 -5 5 -17 10 -25 5 -8 10 -10 10 -5 0 6 -5 17 -10 25 -5
8 -10 11 -10 5z"/>
<path d="M870 2163 c1 -11 50 -90 50 -81 0 10 -41 88 -46 88 -2 0 -4 -3 -4 -7z"/>
<path d="M936 2145 c4 -8 10 -12 15 -9 11 6 2 24 -11 24 -5 0 -7 -7 -4 -15z"/>
<path d="M910 2143 c0 -4 5 -15 10 -23 8 -13 10 -13 10 2 0 9 -4 20 -10 23 -5
3 -10 3 -10 -2z"/>
<path d="M1606 1985 c4 -8 8 -15 10 -15 2 0 4 7 4 15 0 8 -4 15 -10 15 -5 0
-7 -7 -4 -15z"/>
<path d="M1525 1910 c3 -5 8 -10 11 -10 2 0 4 5 4 10 0 6 -5 10 -11 10 -5 0
-7 -4 -4 -10z"/>
</g>
</svg>
